<svg xmlns="http://www.w3.org/2000/svg" width="1.38mm" height="1.41mm" viewBox="0 0 3.92 4.01">
  <defs>
    <style>
      .a {
        fill: #5c6161;
      }
    </style>
  </defs>
  <title>foot_sns_icon03</title>
  <path class="a" d="M110.87,138.79v-.62c0-.34-.34-.61-.78-.67a1.59,1.59,0,0,0,.06-.38c0-.63-.36-1.14-.8-1.14h-1.6c-.45,0-.8.51-.8,1.14v1.72a1.07,1.07,0,0,0,1,1.15h2a1.08,1.08,0,0,0,1-1.15h0v-.05Zm-2.68-2h.8a.35.35,0,1,1,0,.7h-.8a.35.35,0,1,1,0-.7Zm1.53,2.28H108.1a.35.35,0,0,1,0-.7h1.62a.35.35,0,0,1,0,.7Z" transform="translate(-106.95 -135.98)"/>
</svg>
