<svg xmlns="http://www.w3.org/2000/svg" width="35.78mm" height="14.53mm" viewBox="0 0 101.43 41.2">
  <defs>
    <style>
      .a {
        fill: #fff;
      }
    </style>
  </defs>
  <title>siteLogo</title>
  <g>
    <path class="a" d="M123,127.81a12.76,12.76,0,1,0,12.76,12.76A12.76,12.76,0,0,0,123,127.81Zm0,20.39a7.64,7.64,0,1,1,7.63-7.63A7.64,7.64,0,0,1,123,148.2Z" transform="translate(-55.18 -127.81)"/>
    <path class="a" d="M88.2,148.09a7.24,7.24,0,0,1-1.24.11,7.64,7.64,0,0,1,0-15.27,8.41,8.41,0,0,1,1.24.11,12.78,12.78,0,0,1,4.53-3.85,12.77,12.77,0,1,0,0,22.75A12.68,12.68,0,0,1,88.2,148.09Z" transform="translate(-55.18 -127.81)"/>
    <path class="a" d="M106.18,148.11a8.47,8.47,0,0,1-1.13.09A7.62,7.62,0,0,1,97.83,143h7.22v-4.9H97.83a7.62,7.62,0,0,1,7.22-5.19,7.08,7.08,0,0,1,1.13.1,12.76,12.76,0,0,1,4.57-3.87,12.77,12.77,0,1,0,0,22.81A12.83,12.83,0,0,1,106.18,148.11Z" transform="translate(-55.18 -127.81)"/>
    <g>
      <path class="a" d="M55.18,159h1.9v9.78h-1.9Z" transform="translate(-55.18 -127.81)"/>
      <path class="a" d="M59.43,159h1.94l2.77,5.21,1,2.11h.07a33.72,33.72,0,0,1-.25-3.42V159h1.81v9.78H64.78L62,163.59l-1-2.11H61c.09,1.06.23,2.29.23,3.41v3.93h-1.8Z" transform="translate(-55.18 -127.81)"/>
      <path class="a" d="M71,160.67H68.29V159h7.29v1.63H72.87v8.15H71Z" transform="translate(-55.18 -127.81)"/>
      <path class="a" d="M77.12,159H83v1.63H79v2.26h3.34v1.63H79v2.62h4.08v1.64h-6Z" transform="translate(-55.18 -127.81)"/>
      <path class="a" d="M90.23,168.82l-2-3.7H87v3.7H85V159h3.32c2,0,3.58.71,3.58,3a2.81,2.81,0,0,1-1.81,2.82l2.22,4ZM87,163.57h1.23c1.22,0,1.89-.53,1.89-1.57s-.67-1.41-1.89-1.41H87Z" transform="translate(-55.18 -127.81)"/>
      <path class="a" d="M93.82,159h2l2.76,5.21,1,2.11h.06c-.1-1-.24-2.31-.24-3.42V159h1.8v9.78H99.18l-2.76-5.23-1-2.11h-.07c.09,1.06.23,2.29.23,3.41v3.93h-1.8Z" transform="translate(-55.18 -127.81)"/>
      <path class="a" d="M107.93,166.31h-3.09l-.67,2.51h-1.93l3.05-9.78h2.25l3.06,9.78h-2Zm-.41-1.52-.28-1.07c-.3-1-.55-2.14-.84-3.2h-.05c-.24,1.07-.53,2.18-.81,3.2l-.28,1.07Z" transform="translate(-55.18 -127.81)"/>
      <path class="a" d="M112.62,160.67h-2.68V159h7.29v1.63h-2.7v8.15h-1.91Z" transform="translate(-55.18 -127.81)"/>
      <path class="a" d="M118.78,159h1.9v9.78h-1.9Z" transform="translate(-55.18 -127.81)"/>
      <path class="a" d="M122.55,163.89c0-3.18,1.74-5,4.26-5s4.27,1.86,4.27,5-1.74,5.11-4.27,5.11S122.55,167.06,122.55,163.89Zm6.58,0c0-2.1-.9-3.36-2.32-3.36s-2.32,1.26-2.32,3.36.91,3.42,2.32,3.42S129.13,166,129.13,163.89Z" transform="translate(-55.18 -127.81)"/>
      <path class="a" d="M132.94,159h1.95l2.77,5.21,1,2.11h.06c-.1-1-.24-2.31-.24-3.42V159h1.8v9.78H138.3l-2.76-5.23-1-2.11h-.07c.09,1.06.23,2.29.23,3.41v3.93h-1.8Z" transform="translate(-55.18 -127.81)"/>
      <path class="a" d="M147.05,166.31H144l-.67,2.51h-1.93l3.06-9.78h2.24l3.06,9.78h-2Zm-.41-1.52-.28-1.07c-.3-1-.55-2.14-.84-3.2h-.05c-.24,1.07-.53,2.18-.81,3.2l-.28,1.07Z" transform="translate(-55.18 -127.81)"/>
      <path class="a" d="M150.84,159h1.91v8.14h3.86v1.64h-5.77Z" transform="translate(-55.18 -127.81)"/>
    </g>
  </g>
</svg>
