<svg xmlns="http://www.w3.org/2000/svg" width="1.39mm" height="1.39mm" viewBox="0 0 3.95 3.93">
  <defs>
    <style>
      .a {
        fill: #5c6161;
      }
    </style>
  </defs>
  <title>foot_sns_icon02</title>
  <path class="a" d="M109.8,136H108a1.09,1.09,0,0,0-1.08,1.08v1.78A1.08,1.08,0,0,0,108,140h1.79a1.08,1.08,0,0,0,1.08-1.08v-1.78A1.08,1.08,0,0,0,109.8,136Zm.74,2.71a.89.89,0,0,1-.89.89h-1.48a.89.89,0,0,1-.9-.89v-1.47a.89.89,0,0,1,.9-.89h1.48a.89.89,0,0,1,.89.89Z" transform="translate(-106.93 -136.01)"/>
  <path class="a" d="M108.91,136.94a1,1,0,1,0,1,1A1,1,0,0,0,108.91,136.94Zm0,1.66a.62.62,0,0,1,0-1.24.62.62,0,0,1,0,1.24Z" transform="translate(-106.93 -136.01)"/>
  <circle class="a" cx="3.01" cy="0.93" r="0.23"/>
</svg>
