<svg xmlns="http://www.w3.org/2000/svg" width="5.52mm" height="2.29mm" viewBox="0 0 15.64 6.49">
  <defs>
    <style>
      .a {
        fill: #fff;
      }
    </style>
  </defs>
  <title>logo</title>
  <path class="a" d="M106.38,146.24a3.25,3.25,0,1,0,3.24,3.24A3.25,3.25,0,0,0,106.38,146.24Zm0,5.18a1.94,1.94,0,1,1,1.94-1.94A1.94,1.94,0,0,1,106.38,151.42Z" transform="translate(-93.98 -146.24)"/>
  <path class="a" d="M97.54,151.4l-.31,0a1.94,1.94,0,1,1,0-3.88,1.63,1.63,0,0,1,.31,0,3.21,3.21,0,0,1,1.15-1,3.24,3.24,0,1,0-1.46,6.14,3.15,3.15,0,0,0,1.46-.36A3.18,3.18,0,0,1,97.54,151.4Z" transform="translate(-93.98 -146.24)"/>
  <path class="a" d="M102.11,151.4l-.29,0a1.94,1.94,0,0,1-1.83-1.31h1.83v-1.25H100a1.93,1.93,0,0,1,1.83-1.32,1.36,1.36,0,0,1,.29,0,3.26,3.26,0,0,1,1.16-1,3.33,3.33,0,0,0-1.45-.34,3.25,3.25,0,0,0,0,6.49,3.2,3.2,0,0,0,1.45-.35A3.24,3.24,0,0,1,102.11,151.4Z" transform="translate(-93.98 -146.24)"/>
</svg>
